<svg width="65" height="65" viewBox="0 0 65 65" fill="none" xmlns="http://www.w3.org/2000/svg">
<g clip-path="url(#clip0_23_102)">
<path d="M59.5835 40.625H57.9585L35.7502 18.4166C35.5091 18.1539 35.2162 17.9442 34.8898 17.8007C34.5634 17.6573 34.2108 17.5832 33.8543 17.5832C33.4978 17.5832 33.1452 17.6573 32.8189 17.8007C32.4925 17.9442 32.1995 18.1539 31.9585 18.4166L23.9689 26.4062C23.7158 26.6543 23.3755 26.7933 23.021 26.7933C22.6665 26.7933 22.3262 26.6543 22.0731 26.4062L20.0418 24.375L22.2085 22.2083L33.8543 10.5625L45.5002 22.2083C46.0002 22.7186 46.6816 23.0106 47.396 23.0208H59.5835C60.3018 23.0208 60.9907 22.7355 61.4986 22.2275C62.0065 21.7196 62.2918 21.0308 62.2918 20.3125C62.2918 19.5942 62.0065 18.9053 61.4986 18.3974C60.9907 17.8895 60.3018 17.6041 59.5835 17.6041H48.4793L35.7502 4.87496C35.5091 4.61227 35.2162 4.40254 34.8898 4.25907C34.5634 4.11559 34.2108 4.0415 33.8543 4.0415C33.4978 4.0415 33.1452 4.11559 32.8189 4.25907C32.4925 4.40254 32.1995 4.61227 31.9585 4.87496L19.2293 17.6041H5.41683C4.69853 17.6041 4.00966 17.8895 3.50175 18.3974C2.99384 18.9053 2.7085 19.5942 2.7085 20.3125C2.7085 21.0308 2.99384 21.7196 3.50175 22.2275C4.00966 22.7355 4.69853 23.0208 5.41683 23.0208H14.3543C14.0683 23.7341 14.0057 24.5176 14.175 25.2673C14.3443 26.017 14.7374 26.6975 15.3022 27.2187L18.2814 30.1979C19.5471 31.4385 21.2487 32.1334 23.021 32.1334C24.7933 32.1334 26.4949 31.4385 27.7606 30.1979L33.8543 24.1041L54.9793 45.2291C55.4794 45.7394 56.1608 46.0315 56.8752 46.0416H59.5835C60.3018 46.0416 60.9907 45.7563 61.4986 45.2484C62.0065 44.7405 62.2918 44.0516 62.2918 43.3333C62.2918 42.615 62.0065 41.9261 61.4986 41.4182C60.9907 40.9103 60.3018 40.625 59.5835 40.625Z" fill="white"/>
<path d="M42.5208 37.3752C41.9993 36.984 41.3541 36.7941 40.7038 36.8403C40.0535 36.8865 39.4417 37.1658 38.9808 37.6268C38.5198 38.0877 38.2405 38.6995 38.1943 39.3498C38.1481 40.0001 38.338 40.6453 38.7292 41.1668L48.2083 50.646C48.4494 50.9087 48.7423 51.1184 49.0687 51.2619C49.3951 51.4054 49.7477 51.4795 50.1042 51.4795C50.4607 51.4795 50.8133 51.4054 51.1396 51.2619C51.466 51.1184 51.759 50.9087 52 50.646C52.2627 50.405 52.4724 50.112 52.6159 49.7856C52.7594 49.4593 52.8335 49.1067 52.8335 48.7502C52.8335 48.3937 52.7594 48.041 52.6159 47.7147C52.4724 47.3883 52.2627 47.0953 52 46.8543L42.5208 37.3752Z" fill="white"/>
<path d="M34.3958 41.4377C33.8743 41.0465 33.2291 40.8566 32.5788 40.9028C31.9285 40.949 31.3167 41.2283 30.8558 41.6893C30.3948 42.1502 30.1155 42.762 30.0693 43.4123C30.0231 44.0626 30.213 44.7078 30.6042 45.2293L40.0833 54.7085C40.3244 54.9712 40.6173 55.1809 40.9437 55.3244C41.2701 55.4679 41.6227 55.542 41.9792 55.542C42.3357 55.542 42.6883 55.4679 43.0146 55.3244C43.341 55.1809 43.634 54.9712 43.875 54.7085C44.1377 54.4675 44.3474 54.1745 44.4909 53.8481C44.6344 53.5218 44.7085 53.1692 44.7085 52.8127C44.7085 52.4562 44.6344 52.1035 44.4909 51.7772C44.3474 51.4508 44.1377 51.1578 43.875 50.9168L34.3958 41.4377Z" fill="white"/>
<path d="M24.9168 44.1457C24.3953 43.7545 23.7501 43.5646 23.0998 43.6108C22.4495 43.657 21.8377 43.9363 21.3768 44.3973C20.9158 44.8582 20.6365 45.4701 20.5903 46.1204C20.5441 46.7706 20.734 47.4158 21.1252 47.9373L30.6043 57.4165C30.8454 57.6792 31.1383 57.8889 31.4647 58.0324C31.7911 58.1759 32.1437 58.25 32.5002 58.25C32.8567 58.25 33.2093 58.1759 33.5356 58.0324C33.862 57.8889 34.155 57.6792 34.396 57.4165C34.6587 57.1755 34.8684 56.8825 35.0119 56.5561C35.1554 56.2298 35.2295 55.8772 35.2295 55.5207C35.2295 55.1642 35.1554 54.8116 35.0119 54.4852C34.8684 54.1588 34.6587 53.8659 34.396 53.6248L24.9168 44.1457Z" fill="white"/>
<path d="M10.021 41.4375C9.52095 40.9272 8.83954 40.6352 8.12516 40.625H5.41683C4.69853 40.625 4.00966 40.9103 3.50175 41.4183C2.99384 41.9262 2.7085 42.615 2.7085 43.3333C2.7085 44.0516 2.99384 44.7405 3.50175 45.2484C4.00966 45.7563 4.69853 46.0417 5.41683 46.0417H7.04183L21.1252 60.125C21.3662 60.3877 21.6592 60.5974 21.9855 60.7409C22.3119 60.8844 22.6645 60.9585 23.021 60.9585C23.3775 60.9585 23.7301 60.8844 24.0565 60.7409C24.3828 60.5974 24.6758 60.3877 24.9168 60.125C25.1795 59.884 25.3892 59.591 25.5327 59.2646C25.6762 58.9383 25.7503 58.5857 25.7503 58.2292C25.7503 57.8727 25.6762 57.52 25.5327 57.1937C25.3892 56.8673 25.1795 56.5744 24.9168 56.3333L10.021 41.4375Z" fill="white"/>
</g>
<defs>
<clipPath id="clip0_23_102">
<rect width="65" height="65" fill="white"/>
</clipPath>
</defs>
</svg>
