<svg width="65" height="65" viewBox="0 0 65 65" fill="none" xmlns="http://www.w3.org/2000/svg">
<g clip-path="url(#clip0_22_77)">
<path d="M32.5001 16.7227C33.0731 16.7227 33.5374 16.2583 33.5374 15.6855V1.03723C33.5374 0.464404 33.0731 0 32.5001 0C31.9272 0 31.4629 0.464404 31.4629 1.03723V15.6855C31.4629 16.2584 31.9272 16.7227 32.5001 16.7227Z" fill="white"/>
<path d="M36.6544 16.7227C37.2274 16.7227 37.6917 16.2583 37.6917 15.6855V1.03723C37.6917 0.464404 37.2274 0 36.6544 0C36.0815 0 35.6172 0.464404 35.6172 1.03723V15.6855C35.6172 16.2584 36.0815 16.7227 36.6544 16.7227Z" fill="white"/>
<path d="M29.3826 19.0643V4.05042C29.3826 3.47759 28.9183 3.01318 28.3453 3.01318C27.7724 3.01318 27.3081 3.47759 27.3081 4.05042V20.0242C27.3081 20.5971 27.7724 21.0615 28.3453 21.0615C31.0305 21.0615 33.2152 23.2463 33.2152 25.9318C33.2152 26.5046 33.6795 26.969 34.2525 26.969C34.8254 26.969 35.2897 26.5046 35.2897 25.9318C35.2897 22.4548 32.7215 19.5665 29.3826 19.0643Z" fill="white"/>
<path d="M40.8087 4.52002C40.2357 4.52002 39.7715 4.98442 39.7715 5.55725V22.9344C39.7715 25.5224 38.3781 27.9362 36.1352 29.2337C35.6394 29.5205 35.4699 30.1552 35.7568 30.651C35.9492 30.9833 36.2974 31.1691 36.6556 31.1691C36.8318 31.1691 37.0105 31.124 37.1741 31.0295C37.2572 30.9814 37.3392 30.9319 37.4204 30.8814V63.9629C37.4204 64.5358 37.8847 65.0002 38.4576 65.0002C39.0306 65.0002 39.4949 64.5358 39.4949 63.9629V29.1272C40.9842 27.4398 41.8459 25.2413 41.8459 22.9344V5.55725C41.8459 4.98442 41.3817 4.52002 40.8087 4.52002Z" fill="white"/>
<path d="M28.8645 29.2334C26.6216 27.9359 25.2283 25.5222 25.2283 22.934V11.6207C25.2283 11.0479 24.764 10.5835 24.191 10.5835C23.6181 10.5835 23.1538 11.0479 23.1538 11.6207V22.934C23.1538 26.0561 24.7311 28.9806 27.3079 30.7064V63.9626C27.3079 64.5354 27.7721 64.9998 28.3451 64.9998C28.9181 64.9998 29.3823 64.5354 29.3823 63.9626V30.1313C29.3823 29.761 29.185 29.4188 28.8645 29.2334Z" fill="white"/>
<path d="M11.7277 33.669C12.3006 33.669 12.7649 33.2046 12.7649 32.6318V17.9835C12.7649 17.4107 12.3006 16.9463 11.7277 16.9463C11.1547 16.9463 10.6904 17.4107 10.6904 17.9835V32.6318C10.6904 33.2046 11.1547 33.669 11.7277 33.669Z" fill="white"/>
<path d="M15.882 33.669C16.4549 33.669 16.9192 33.2046 16.9192 32.6318V17.9835C16.9192 17.4107 16.4549 16.9463 15.882 16.9463C15.309 16.9463 14.8447 17.4107 14.8447 17.9835V32.6318C14.8447 33.2046 15.309 33.669 15.882 33.669Z" fill="white"/>
<path d="M8.61011 36.0105V20.9967C8.61011 20.4239 8.14585 19.9595 7.57288 19.9595C6.99991 19.9595 6.53564 20.4239 6.53564 20.9967V36.9704C6.53564 37.5432 6.99991 38.0076 7.57288 38.0076C10.2581 38.0076 12.4428 40.1925 12.4428 42.8779C12.4428 43.4508 12.907 43.9152 13.48 43.9152C14.053 43.9152 14.5172 43.4508 14.5172 42.8779C14.5172 39.4011 11.9489 36.5128 8.61011 36.0105Z" fill="white"/>
<path d="M20.0362 21.4658C19.4633 21.4658 18.999 21.9302 18.999 22.5031V39.8802C18.999 42.4681 17.6057 44.882 15.3627 46.1795C14.8669 46.4663 14.6974 47.1009 14.9844 47.5968C15.1767 47.9291 15.525 48.1149 15.8832 48.1149C16.0594 48.1149 16.238 48.0698 16.4016 47.9752C16.4848 47.927 16.5668 47.8775 16.6479 47.8271V63.9625C16.6479 64.5354 17.1122 64.9998 17.6852 64.9998C18.2581 64.9998 18.7224 64.5354 18.7224 63.9625V46.0729C20.2117 44.3857 21.0735 42.187 21.0735 39.8802V22.5031C21.0735 21.9302 20.6091 21.4658 20.0362 21.4658Z" fill="white"/>
<path d="M8.09208 46.1797C5.84917 44.882 4.45582 42.4683 4.45582 39.8803V28.567C4.45582 27.9942 3.99155 27.5298 3.41858 27.5298C2.84561 27.5298 2.38135 27.9942 2.38135 28.567V39.8803C2.38135 43.0023 3.95863 45.9267 6.5354 47.6525V63.9626C6.5354 64.5354 6.99967 64.9998 7.57264 64.9998C8.1456 64.9998 8.60987 64.5354 8.60987 63.9626V47.0774C8.60987 46.7071 8.41252 46.365 8.09208 46.1797Z" fill="white"/>
<path d="M53.2726 25.3711C53.8456 25.3711 54.3098 24.9067 54.3098 24.3339V9.68567C54.3098 9.11284 53.8456 8.64844 53.2726 8.64844C52.6996 8.64844 52.2354 9.11284 52.2354 9.68567V24.3339C52.2354 24.9067 52.6998 25.3711 53.2726 25.3711Z" fill="white"/>
<path d="M49.1178 8.64844C48.5448 8.64844 48.0806 9.11284 48.0806 9.68567V24.3339C48.0806 24.9067 48.5448 25.3711 49.1178 25.3711C49.6908 25.3711 50.155 24.9067 50.155 24.3339V9.68567C50.155 9.11284 49.6908 8.64844 49.1178 8.64844Z" fill="white"/>
<path d="M58.464 28.6725V12.6989C58.464 12.126 57.9997 11.6616 57.4268 11.6616C56.8538 11.6616 56.3895 12.126 56.3895 12.6989V27.7128C53.0506 28.2149 50.4824 31.1034 50.4824 34.5802C50.4824 35.153 50.9467 35.6174 51.5197 35.6174C52.0926 35.6174 52.5569 35.153 52.5569 34.5802C52.5569 31.8947 54.7416 29.7099 57.4268 29.7099C57.9997 29.7098 58.464 29.2454 58.464 28.6725Z" fill="white"/>
<path d="M49.637 37.8821C47.3941 36.5845 46.0007 34.1708 46.0007 31.5828V14.2057C46.0007 13.6329 45.5365 13.1685 44.9635 13.1685C44.3905 13.1685 43.9263 13.6329 43.9263 14.2057V31.5828C43.9263 33.8896 44.788 36.0883 46.2773 37.7755V63.9629C46.2773 64.5357 46.7416 65.0002 47.3146 65.0002C47.8875 65.0002 48.3518 64.5357 48.3518 63.9629V39.5296C48.4331 39.58 48.515 39.6295 48.5981 39.6777C48.7617 39.7724 48.9404 39.8174 49.1166 39.8174C49.4748 39.8174 49.823 39.6316 50.0154 39.2993C50.3024 38.8035 50.1328 38.169 49.637 37.8821Z" fill="white"/>
<path d="M61.5814 19.2319C61.0085 19.2319 60.5442 19.6963 60.5442 20.2692V31.5825C60.5442 34.1705 59.1508 36.5843 56.9079 37.8818C56.5875 38.0671 56.3901 38.4093 56.3901 38.7796V63.9627C56.3901 64.5355 56.8544 65 57.4274 65C58.0003 65 58.4646 64.5355 58.4646 63.9627V39.3547C61.0414 37.6289 62.6187 34.7044 62.6187 31.5825V20.2692C62.6187 19.6963 62.1544 19.2319 61.5814 19.2319Z" fill="white"/>
</g>
<defs>
<clipPath id="clip0_22_77">
<rect width="65" height="65" fill="white"/>
</clipPath>
</defs>
</svg>
